<svg xmlns="http://www.w3.org/2000/svg" width="39" height="32" viewBox="0 0 39 32">
    <path fill-rule="evenodd" d="M0 1.78C0 .458 1.387-.401 2.566.19L6.11 1.967c.876.44 1.23 1.507.793 2.385-.438.878-1.503 1.234-2.379.795l-.98-.483v22.657l.98-.468c.876-.44 1.94-.083 2.379.795.438.878.083 1.945-.793 2.385L2.566 31.81C1.386 32.401 0 31.542 0 30.22zm8.864 0c0-1.322 1.386-2.181 2.565-1.59l3.546 1.777c.875.44 1.23 1.507.792 2.385-.437.878-1.502 1.234-2.378.795l-.98-.483v22.657l.98-.468c.876-.44 1.94-.083 2.378.795.438.878.083 1.945-.792 2.385l-3.546 1.777c-1.179.591-2.565-.268-2.565-1.59zm8.863 0c0-1.122 1.024-1.963 2.12-1.743l17.728 3.555c.829.166 1.425.896 1.425 1.743v21.33c0 .847-.596 1.577-1.425 1.743l-17.727 3.555c-1.097.22-2.12-.621-2.12-1.743zm3.546 2.185V28.08l14.182-2.875V6.793L21.273 3.965z"/>
</svg>