<svg xmlns="http://www.w3.org/2000/svg" width="31" height="29" viewBox="0 0 31 29">
    <path fill-rule="evenodd" d="M29.45 29H1.48c-.861 0-1.522-.688-1.478-1.518L1.393 1.518C1.438.68 2.164 0 3.028 0h4.663c.858 0 1.59.688 1.635 1.518l.582 10.867 10.318-4.22c.8-.294 1.45.151 1.45.997v1.904l7.874-2.9c.8-.295 1.45.152 1.45.985v18.33C31 28.32 30.305 29 29.45 29zm-1.558-3.022l.007-13.944-6.223 2.292v11.627l6.216.025zm-17.257-.036l7.933-.029.004-13.764-8.49 3.471.553 10.322zM6.26 3.052H4.423l-.235 4.58H6.52l-.26-4.58zm-2.229 7.632l-.784 15.263h4.31l-.865-15.263h-2.66zm19.2 7.63c0-.842.689-1.525 1.553-1.525.858 0 1.554.677 1.554 1.525v3.056c0 .842-.69 1.525-1.554 1.525-.858 0-1.554-.677-1.554-1.525v-3.056zm-9.325 0c0-.842.69-1.525 1.554-1.525.859 0 1.554.677 1.554 1.525v3.056c0 .842-.69 1.525-1.554 1.525-.858 0-1.554-.677-1.554-1.525v-3.056z"/>
</svg>