<svg xmlns="http://www.w3.org/2000/svg" width="25" height="31" viewBox="0 0 25 31">
    <path d="M12.5 0C19.404 0 25 5.552 25 12.4c0 4.528-2.101 8.972-5.532 13.011C16.94 28.388 13.753 31 12.5 31c-1.253 0-4.44-2.612-6.968-5.589C2.102 21.371 0 16.928 0 12.4 0 5.552 5.596 0 12.5 0zm0 3.1c-5.178 0-9.375 4.164-9.375 9.3 0 3.68 1.798 7.483 4.797 11.014 1.131 1.332 2.37 2.54 3.522 3.485.464.38 1.056.806 1.056.806s.658-.48 1.056-.806c1.152-.945 2.39-2.153 3.522-3.485 2.999-3.531 4.797-7.333 4.797-11.014 0-5.136-4.197-9.3-9.375-9.3zm0 4.65c2.589 0 4.688 2.082 4.688 4.65 0 2.568-2.1 4.65-4.688 4.65-2.589 0-4.688-2.082-4.688-4.65 0-2.568 2.1-4.65 4.688-4.65zm0 3.1c-.863 0-1.563.694-1.563 1.55 0 .856.7 1.55 1.563 1.55s1.563-.694 1.563-1.55c0-.856-.7-1.55-1.563-1.55z"/>
</svg>