<svg xmlns="http://www.w3.org/2000/svg" width="33" height="33" viewBox="0 0 33 33">
    <path fill-rule="evenodd" d="M6.684 4.76l25.01 1.534c.866.048 1.438.784 1.28 1.63L30.927 18.88c-.16.852-.992 1.543-1.86 1.543H10.3l.363 1.572H28.28c.868 0 1.572.704 1.572 1.572 0 .868-.704 1.572-1.572 1.572H9.41c-.732 0-1.367-.505-1.532-1.219L3.33 4.214.87 2.98C.095 2.592-.221 1.648.167.871.553.094 1.498-.222 2.275.166l3.12 1.556c.42.21.724.596.83 1.053l.459 1.986zm21.343 12.518l1.489-7.97L7.421 7.955l2.153 9.322h18.453zM25.135 33c-1.737 0-3.145-1.408-3.145-3.144 0-1.737 1.408-3.145 3.145-3.145s3.145 1.408 3.145 3.145c0 1.736-1.408 3.144-3.145 3.144zm-14.152 0c-1.737 0-3.145-1.408-3.145-3.144 0-1.737 1.408-3.145 3.145-3.145s3.145 1.408 3.145 3.145c0 1.736-1.408 3.144-3.145 3.144z"/>
</svg>