<svg xmlns="http://www.w3.org/2000/svg" width="28" height="31" viewBox="0 0 28 31">
    <path fill-rule="evenodd" d="M18.667 26.35v-9.3H9.333v9.3h9.334zM7.77 31h-.774c-.428 0-.775-.348-.775-.768 0-.438-.351-.782-.785-.782h-1.54c-.441 0-.786.35-.786.782 0 .424-.344.768-.774.768h-.775C.7 31 0 30.31 0 29.452V1.548C0 .693.702 0 1.562 0h.775c.427 0 .774.348.774.768 0 .438.352.782.785.782h1.541c.44 0 .785-.35.785-.782 0-.424.344-.768.775-.768h.774c.863 0 1.562.69 1.562 1.548l9.334.002c0-.857.701-1.55 1.562-1.55h.774c.428 0 .775.348.775.768 0 .438.351.782.785.782h1.54c.441 0 .786-.35.786-.782 0-.424.344-.768.774-.768h.775C27.3 0 28 .69 28 1.548v27.904c0 .855-.702 1.548-1.562 1.548h-.775c-.427 0-.774-.348-.774-.768 0-.438-.352-.782-.785-.782h-1.541c-.44 0-.785.35-.785.782 0 .424-.344.768-.775.768h-.774c-.863 0-1.562-.69-1.562-1.548l-9.334-.002c0 .857-.701 1.55-1.562 1.55zm1.562-17.05h9.334v-9.3H9.333v9.3zM3.111 5.432v1.536c0 .438.352.782.785.782h1.541c.44 0 .785-.35.785-.782V5.432c0-.438-.351-.782-.785-.782h-1.54c-.441 0-.786.35-.786.782zm0 6.2v1.536c0 .438.352.782.785.782h1.541c.44 0 .785-.35.785-.782v-1.536c0-.438-.351-.782-.785-.782h-1.54c-.441 0-.786.35-.786.782zm0 12.4v1.536c0 .438.352.782.785.782h1.541c.44 0 .785-.35.785-.782v-1.536c0-.438-.351-.782-.785-.782h-1.54c-.441 0-.786.35-.786.782zm0-6.2v1.536c0 .438.352.782.785.782h1.541c.44 0 .785-.35.785-.782v-1.536c0-.438-.351-.782-.785-.782h-1.54c-.441 0-.786.35-.786.782zm18.667-12.4v1.536c0 .438.351.782.785.782h1.54c.441 0 .786-.35.786-.782V5.432c0-.438-.352-.782-.785-.782h-1.541c-.44 0-.785.35-.785.782zm0 6.2v1.536c0 .438.351.782.785.782h1.54c.441 0 .786-.35.786-.782v-1.536c0-.438-.352-.782-.785-.782h-1.541c-.44 0-.785.35-.785.782zm0 12.4v1.536c0 .438.351.782.785.782h1.54c.441 0 .786-.35.786-.782v-1.536c0-.438-.352-.782-.785-.782h-1.541c-.44 0-.785.35-.785.782zm0-6.2v1.536c0 .438.351.782.785.782h1.54c.441 0 .786-.35.786-.782v-1.536c0-.438-.352-.782-.785-.782h-1.541c-.44 0-.785.35-.785.782z"/>
</svg>