<svg xmlns="http://www.w3.org/2000/svg" width="30" height="35" viewBox="0 0 30 35">
    <path fill-rule="evenodd" d="M7.059 14c-.482 0-.953-.048-1.408-.14l1.074 10.653h.684l1.062-10.654c-.456.093-.929.141-1.412.141zm3.705 12.258c-.087.86-.783 1.574-1.63 1.716.107.336.24.664.401.976.82 1.577 2.223 2.501 4.546 2.55 2.43-.05 3.837-.972 4.646-2.544.297-.577.492-1.212.6-1.852.065-.39.086-.688.085-.84.002-.331.038-.807.139-1.399.166-.978.463-1.96.928-2.892 1.396-2.794 3.985-4.512 7.775-4.473.974.01 1.756.802 1.746 1.768-.01.967-.809 1.742-1.783 1.732-2.378-.025-3.758.891-4.575 2.527-.3.599-.498 1.258-.611 1.92-.067.393-.09.683-.09.78.002.356-.032.851-.133 1.453-.164.972-.462 1.944-.937 2.867-1.385 2.692-3.951 4.376-7.79 4.453-3.73-.077-6.286-1.76-7.683-4.447-.428-.824-.718-1.687-.897-2.553h-.209c-.973 0-1.84-.774-1.938-1.742L1.892 11.767C.718 10.516 0 8.839 0 7c0-3.866 3.168-7 7.059-7 3.898 0 7.059 3.142 7.059 7 0 1.842-.72 3.517-1.893 4.767l-1.461 14.491zM3.529 7h7.06c0-1.933-1.58-3.5-3.53-3.5-1.95 0-3.53 1.567-3.53 3.5z"/>
</svg>