<svg xmlns="http://www.w3.org/2000/svg" width="30" height="30" viewBox="0 0 30 30">
    <path fill="#FFF" fill-rule="evenodd" d="M25.507 27c.825 0 1.493-.668 1.493-1.493V4.493C27 3.668 26.332 3 25.507 3H4.493C3.668 3 3 3.668 3 4.493v21.014C3 26.332 3.668 27 4.493 27H15v-9h-1.5c-.83 0-1.5-.672-1.5-1.5s.67-1.5 1.5-1.5H15c0-2.845.321-4.638 1.656-6.132C17.976 7.39 19.518 6.75 21 6.75c.828 0 1.5.672 1.5 1.5s-.672 1.5-1.5 1.5c-.656 0-1.377.3-2.107 1.117C18.229 11.61 18 12.887 18 15h3c.828 0 1.5.672 1.5 1.5S21.828 18 21 18h-3v9h7.507zM0 25.507V4.493C0 2.01 2.01 0 4.493 0h21.014C27.99 0 30 2.01 30 4.493v21.014C30 27.99 27.99 30 25.507 30H4.493C2.01 30 0 27.99 0 25.507z"/>
</svg>
