<svg width="354" height="37" viewBox="0 0 354 37" xmlns="http://www.w3.org/2000/svg">
    <path d="M5.98 18.674V24.9c0 1.743.05 3.934.1 5.578.05 2.838.997 4.083 2.442 5.328h-.598c-.947 0-2.392-.249-3.887-.249s-2.492.25-3.439.25H0c1.196-1.246 1.645-2.64 1.844-5.33.1-1.643.15-3.834.15-5.577V11.653c0-1.743-.05-3.934-.15-5.578C1.644 3.386 1.196 1.992 0 .747h.598c.947 0 1.944.15 3.439.15h9.17c2.043 0 3.588 0 5.532-.15.25 1.245.399 2.689.399 4.332 0 .947-.05 1.943-.25 3.337-1.196-2.64-2.84-4.83-5.68-5.329-1.247-.199-2.343-.248-4.287-.248-2.342 0-2.641.398-2.79 2.39-.15 1.544-.15 3.336-.15 5.13v6.373c1.694 0 4.335-.05 5.93-.249 2.243-.249 3.688-.896 4.884-2.59v.598c0 .997-.15 1.544-.15 3.188 0 1.643.15 2.24.15 3.236v.598c-1.196-1.693-2.641-2.29-4.884-2.59-1.595-.199-4.286-.249-5.93-.249zM31.199 2.74c-2.342 0-2.641.498-2.79 2.49-.15 1.544-.15 3.336-.15 5.13v6.97c.399.05.747.05 2.292.05 5.532 0 8.223-2.788 8.223-7.22 0-4.581-2.59-7.42-7.575-7.42zM26.314.996c1.944 0 2.941-.2 5.832-.2 7.076 0 10.864 4.184 10.864 8.865 0 4.034-2.043 7.071-5.631 8.615 2.641 4.88 4.834 8.715 8.422 13.246 1.346 1.644 2.592 3.137 4.585 4.333-.747.647-1.794.697-2.542.697-2.143 0-4.136-1.145-6.28-4.133-2.94-3.984-4.983-7.57-7.624-13.247-.748.15-1.695.2-2.741.2-.798 0-2.343-.05-2.94-.2V24.9c0 1.743.049 3.934.099 5.578.05 2.838.698 4.034 1.944 5.328h-.598c-.947 0-1.894-.249-3.39-.249-1.494 0-2.491.25-3.438.25h-.598c1.196-1.246 1.645-2.64 1.844-5.33.1-1.643.15-3.834.15-5.577V11.653c0-1.743-.05-3.934-.15-5.578-.2-2.689-.648-4.083-1.844-5.328h.598c.947 0 1.944.249 3.439.249zm27.96 23.903L64.39 0l9.669 24.9c.598 1.593 1.495 3.933 2.243 5.577.946 2.191 1.545 3.784 2.79 5.328h-.747c-1.296 0-2.193-.15-3.29-.15-1.146 0-1.893.15-3.289.15h-.498c.847-1.096.997-1.892.997-2.69 0-1.642-.798-3.634-2.443-8.216l-.398-.996h-12.16l-.35.996c-1.744 4.582-2.143 6.524-2.143 7.67 0 .945.2 1.892 1.346 3.236h-.548c-1.196 0-2.043-.15-2.89-.15-1.097 0-1.994.15-2.892.15h-.547c1.146-1.743 1.843-3.137 2.79-5.328.748-1.644 1.645-3.984 2.243-5.578zm9.27-16.134L58.16 21.762h10.466L63.544 8.765zM82.98 24.949V11.653c0-1.743 0-3.635-.15-5.279-.248-2.64-.796-4.183-2.242-5.627h.598c1.445 0 2.393.15 4.735.15l22.626 26.393V11.653c0-1.744-.05-3.934-.15-5.578-.199-2.689-.647-4.083-1.843-5.328h.399c.946 0 1.943.249 2.94.249.997 0 1.993-.25 2.94-.25h.4c-1.247 1.295-1.895 2.49-1.945 5.33-.05 1.643-.1 3.833-.1 5.577v16.832c0 2.39.05 5.926.2 8.515L85.622 6.922v18.027c0 1.743.05 3.934.1 5.578.05 2.838.697 4.033 1.943 5.328h-.399c-.946 0-1.943-.249-2.94-.249-.997 0-1.993.249-2.94.249h-.4c1.197-1.245 1.645-2.64 1.845-5.329.1-1.643.15-3.834.15-5.577zm49.988-13.296-4.685 4.73c4.187 5.827 8.024 10.608 12.16 15.19 1.745 1.941 3.19 3.535 4.636 4.332-.798.548-1.794.647-2.542.647-2.143 0-4.186-1.344-6.53-4.133-3.488-4.034-6.876-8.416-11.66-15.189l5.58-5.627c4.985-5.03 6.68-6.972 6.68-8.366 0-.797-.2-1.444-1.147-2.49h.698c1.545 0 2.442.249 3.538.249 1.047 0 1.794-.249 3.09-.249h.748c-1.944 1.992-3.04 3.237-5.034 5.229-1.695 1.693-4.336 4.432-5.532 5.677zm-9.818 0v13.246c0 1.743.05 3.934.1 5.578.05 2.838.697 4.034 1.943 5.328h-.598c-.946 0-1.893-.249-3.389-.249-1.495 0-2.492.25-3.438.25h-.599c1.197-1.246 1.645-2.64 1.844-5.33.1-1.643.15-3.834.15-5.577V11.653c0-1.743-.05-3.934-.15-5.578-.2-2.689-.647-4.083-1.844-5.328h.599c.946 0 1.943.249 3.438.249 1.496 0 2.442-.249 3.39-.249h.597c-1.246 1.295-1.893 2.49-1.943 5.329-.05 1.643-.1 3.834-.1 5.577zm46.599 22.06c9.22 0 14.553-5.527 14.553-15.238 0-9.76-6.43-15.587-14.952-15.587-5.034 0-6.08.35-6.23 2.34-.15 1.545-.15 3.337-.15 5.13v15.04c0 1.742.05 4.431.15 5.427.25 2.54 1.545 2.889 6.629 2.889zM158.983 24.9V11.653c0-1.743-.05-3.934-.15-5.578-.199-2.689-.647-4.083-1.843-5.328h.598c.946 0 1.943.249 3.438.249 3.04 0 5.333-.349 8.722-.349 10.117 0 19.138 5.976 19.138 17.779 0 10.656-7.625 17.628-18.789 17.628-4.186 0-6.927-.498-9.07-.498-1.496 0-2.492.25-3.44.25h-.597c1.196-1.246 1.644-2.64 1.844-5.33.1-1.643.15-3.834.15-5.577zm35.934 0L205.034 0l9.669 24.9c.598 1.593 1.495 3.933 2.242 5.577.947 2.191 1.546 3.784 2.791 5.328h-.747c-1.296 0-2.193-.15-3.29-.15-1.146 0-1.893.15-3.29.15h-.498c.848-1.096.997-1.892.997-2.69 0-1.642-.797-3.634-2.442-8.216l-.399-.996h-12.16l-.348.996c-1.745 4.582-2.143 6.524-2.143 7.67 0 .945.2 1.892 1.345 3.236h-.548c-1.196 0-2.043-.15-2.891-.15-1.096 0-1.993.15-2.89.15h-.549c1.147-1.743 1.844-3.137 2.791-5.328.748-1.644 1.645-3.984 2.243-5.578zm9.27-16.134-5.383 12.997h10.466l-5.084-12.997zm26.264-6.026c-2.342 0-2.64.498-2.79 2.49-.15 1.543-.15 3.336-.15 5.129v6.971c.399.05.747.05 2.292.05 5.533 0 8.224-2.788 8.224-7.22 0-4.582-2.592-7.42-7.576-7.42zM225.567.996c1.944 0 2.94-.2 5.831-.2 7.077 0 10.865 4.184 10.865 8.865 0 4.033-2.043 7.07-5.632 8.615 2.642 4.88 4.835 8.715 8.423 13.246 1.346 1.644 2.591 3.137 4.585 4.333-.748.647-1.794.697-2.542.697-2.143 0-4.136-1.146-6.28-4.133-2.94-3.984-4.983-7.57-7.624-13.247-.748.15-1.695.2-2.742.2-.797 0-2.342-.05-2.94-.2V24.9c0 1.743.05 3.934.1 5.577.05 2.839.697 4.034 1.943 5.329h-.598c-.946 0-1.893-.25-3.389-.25-1.495 0-2.492.25-3.438.25h-.599c1.196-1.245 1.645-2.64 1.844-5.329.1-1.643.15-3.834.15-5.577V11.653c0-1.743-.05-3.934-.15-5.578-.2-2.689-.648-4.083-1.844-5.328h.599c.946 0 1.943.249 3.438.249zm31.199 10.657v13.744c0 1.743.1 4.432.15 5.428.1 2.44.946 2.889 3.19 2.889 2.142 0 3.936-.05 5.282-.25 2.89-.398 4.485-3.236 5.781-6.822.25.996.299 2.34.299 2.988 0 2.042-.399 4.133-.897 6.275-3.638-.2-9.37-.25-15.749-.25-1.495 0-2.492.15-3.439.15h-.598c1.197-1.245 1.645-2.64 1.844-5.328.1-1.644.15-3.835.15-5.578V11.653c0-1.743-.05-3.934-.15-5.578-.2-2.689-.647-4.083-1.844-5.328h.598c.947 0 1.944.249 3.44.249 1.494 0 2.441-.249 3.388-.249h.598c-1.246 1.295-1.893 2.49-1.943 5.329-.05 1.643-.1 3.834-.1 5.577zm23.324 0v13.246c0 1.743.05 3.934.1 5.577.05 2.839.698 4.034 1.944 5.329h-.599c-.947 0-1.893-.25-3.389-.25-1.495 0-2.491.25-3.438.25h-.599c1.197-1.245 1.645-2.64 1.844-5.329.1-1.643.15-3.834.15-5.577V11.653c0-1.743-.05-3.934-.15-5.578-.199-2.689-.647-4.083-1.843-5.328h.597c.947 0 1.944.249 3.44.249 1.495 0 2.441-.249 3.388-.249h.599c-1.246 1.295-1.894 2.49-1.944 5.329-.05 1.643-.1 3.834-.1 5.577zm8.223 13.296V11.653c0-1.743 0-3.635-.15-5.279-.248-2.64-.797-4.183-2.242-5.627h.598c1.445 0 2.392.15 4.735.15L313.88 27.29V11.653c0-1.744-.05-3.934-.15-5.578-.199-2.689-.647-4.083-1.843-5.328h.399c.946 0 1.943.249 2.94.249.997 0 1.993-.25 2.94-.25h.4c-1.247 1.295-1.895 2.49-1.945 5.33-.05 1.643-.1 3.833-.1 5.577v16.832c0 2.39.05 5.926.2 8.515L290.955 6.922v18.027c0 1.743.05 3.934.1 5.577.05 2.839.697 4.034 1.943 5.329h-.399c-.946 0-1.943-.25-2.94-.25-.997 0-1.993.25-2.94.25h-.4c1.197-1.245 1.645-2.64 1.845-5.33.1-1.642.15-3.833.15-5.576zm59.906 4.88c0-1.743 0-2.888-.1-4.532-.2-2.689-.947-4.033-2.392-5.328h.598c.947 0 2.193.249 3.688.249s2.442-.25 3.389-.25H354c-1.246 1.296-1.894 2.391-1.944 5.23-.05 1.643-.1 3.037-.1 4.78 0 1.743.05 2.44.25 3.984-2.84 1.544-6.579 2.59-10.965 2.59-9.818 0-19.586-5.727-19.586-18.326 0-10.956 8.772-18.127 19.288-18.127 4.884 0 7.724.797 11.014 1.992.15 1.195.2 1.793.2 2.938 0 1.146-.1 3.387-.5 5.528-2.59-5.826-4.584-8.167-10.665-8.167-8.771 0-14.652 6.424-14.652 15.786 0 10.11 7.476 16.085 15.649 16.085 4.386 0 6.23-1.295 6.23-4.432z" fill="#FFF" fill-rule="evenodd"/>
</svg>
