<svg xmlns="http://www.w3.org/2000/svg" width="42" height="35" viewBox="0 0 42 35">
    <path fill-rule="evenodd" d="M2.793 8.79c-.225-.84-.754-1.482-1.772-1.95C.142 6.439-.243 5.4.16 4.52c.403-.878 1.441-1.264 2.32-.86 1.98.908 3.44 2.557 3.835 4.871 1.03-.57 2.15-.998 3.333-1.254C9.953 3.207 13.352 0 17.5 0c3.785 0 6.946 2.67 7.703 6.229l4.624-2.875c1.577-.98 3.423.035 3.423 1.897 0 0 0 3.631-.019 3.932 2.236 1.554 3.9 3.826 4.712 6.567h1.43c1.442 0 2.627 1.17 2.627 2.621v7.008C42 26.821 40.82 28 39.373 28c0 0-4.373 0-4.553-.01-.765.726-1.57 1.305-1.57 1.305v3.078c0 1.443-1.172 2.627-2.622 2.627h-5.255c-1.445 0-2.623-1.179-2.623-2.627V31.5h-7v.873c0 1.443-1.172 2.627-2.622 2.627H7.873c-1.445 0-2.623-1.179-2.623-2.627 0 0-.017-2.785-.017-3.08C1.996 27.029 0 23.313 0 19.25c0-2.829.96-5.434 2.57-7.507.01-.035.591-1.58.223-2.952zm21.256 3.46h.46c.955 0 1.741.784 1.741 1.75 0 .973-.78 1.75-1.742 1.75H10.492c-.956 0-1.742-.784-1.742-1.75 0-.973.78-1.75 1.742-1.75h.46c-.313-.467-.577-.97-.785-1.5-3.827.935-6.667 4.385-6.667 8.5 0 5.85 5.25 8.085 5.25 8.085V31.5h3.5V28h14l-.026 3.5 3.526.009v-4.173s2.192-1.072 3.544-2.836c2.082 0 5.206.026 5.206.026V19.25h-3.376c-.304-6.072-5.374-8.085-5.374-8.085V7.533L24.961 10.5c-.254.623-.55 1.21-.912 1.75zm5.701 7c-.966 0-1.75-.784-1.75-1.75s.784-1.75 1.75-1.75c.967 0 1.75.784 1.75 1.75s-.783 1.75-1.75 1.75zm-12.25-7c2.416 0 4.375-1.959 4.375-4.375S19.916 3.5 17.5 3.5s-4.375 1.959-4.375 4.375 1.959 4.375 4.375 4.375z"/>
</svg>