<svg xmlns="http://www.w3.org/2000/svg" width="39" height="37" viewBox="0 0 39 37">
    <path fill-rule="evenodd" d="M21.983 22.763c-.9.383-1.943-.031-2.329-.926-.385-.894.032-1.93.932-2.313l5.28-2.249-.63-1.434-5.913 2.517c-.9.383-1.943-.031-2.329-.925-.386-.895.031-1.93.932-2.314l5.886-2.506-1.331-3.017s-4.082 1.7-5.026 1.88c-1.262.24-2.448.146-3.555-.376-2.814-1.326-3.585-3.009-3.98-6.5 0 0-4.929 4.917-5.852 6.03-.869 1.044-.66 3.024.71 4.66.725.864 16.52 17.388 16.554 17.422.347.36 1.233.78 1.732.78h10.65c1.11 0 2.137-1.528 1.598-2.829-.172-.415-5.575-5.907-5.634-5.958-.561-.493-1.174-1.343-1.468-2.03-.048-.111-.688-1.607-.93-2.168l-5.297 2.256zM2.062 17.575c-2.39-2.852-2.797-6.72-.72-9.22 1.005-1.21 6.834-7 7.587-7.529.521-.367.975-.615 1.44-.74 1.067-.287 2.223.14 2.591 1.377.144.483.415 2.129.484 2.737.27 2.386.562 3.023 1.966 3.685.37.174.81.208 1.385.1.596-.114 4.373-1.762 5.159-1.913 1.51-.29 2.849.226 3.584 1.69.55 1.151 5.885 13.404 5.933 13.515.085.2.384.614.53.742.054.047 5.95 6.61 6.405 7.443C40.318 32.97 37.313 37 33.71 37H23.06c-1.462 0-3.263-.766-4.277-1.817-.033-.034-15.92-16.652-16.721-17.608zM.002 35.238c0-.973.793-1.762 1.768-1.762h10.652c.977 0 1.768.782 1.768 1.762 0 .973-.793 1.762-1.768 1.762H1.77c-.976 0-1.768-.782-1.768-1.762zm0-7.048c0-.973.786-1.761 1.772-1.761h3.55c.979 0 1.772.782 1.772 1.761 0 .974-.786 1.762-1.772 1.762h-3.55c-.979 0-1.772-.782-1.772-1.762z"/>
</svg>