<svg xmlns="http://www.w3.org/2000/svg" width="37" height="25" viewBox="0 0 37 25">
    <path fill-rule="evenodd" d="M28.19 25c-2.301 0-4.259-1.49-4.984-3.571h-9.412C13.07 23.509 11.111 25 8.81 25c-2.302 0-4.26-1.49-4.985-3.571H1.76c-.972 0-1.76-.801-1.76-1.791V1.786C0 .799.789 0 1.762 0h22.024c.72 0 1.368.445 1.636 1.123l3.08 7.806h6.738c.972 0 1.76.8 1.76 1.79v8.919c0 .989-.79 1.79-1.76 1.79h-2.065C32.45 23.51 30.492 25 28.19 25zm0-10.714c2.302 0 4.26 1.49 4.985 3.571h.301V12.5H3.524v5.357h.3c.726-2.08 2.684-3.571 4.986-3.571 2.301 0 4.259 1.49 4.984 3.571h9.412c.725-2.08 2.683-3.571 4.984-3.571zM3.524 8.929h7.928V3.573l-7.928.001V8.93zm21.18 0l-2.122-5.357h-7.606V8.93h9.728zm5.248 10.714c0-.986-.788-1.786-1.762-1.786-.973 0-1.761.8-1.761 1.786s.788 1.786 1.761 1.786c.974 0 1.762-.8 1.762-1.786zm-19.38 0c0-.986-.79-1.786-1.762-1.786-.974 0-1.762.8-1.762 1.786s.788 1.786 1.762 1.786c.973 0 1.761-.8 1.761-1.786z"/>
</svg>