<svg xmlns="http://www.w3.org/2000/svg" width="30" height="30" viewBox="0 0 30 30">
    <path fill="#FFF" d="M0 25.507V4.493C0 2.01 2.01 0 4.493 0h21.014C27.99 0 30 2.01 30 4.493v21.014C30 27.99 27.99 30 25.507 30H4.493C2.01 30 0 27.99 0 25.507zM4.493 3C3.668 3 3 3.668 3 4.493v21.014C3 26.332 3.668 27 4.493 27h21.014c.825 0 1.493-.668 1.493-1.493V4.493C27 3.668 26.332 3 25.507 3H4.493zM7.5 13.504C7.5 12.674 8.166 12 9 12c.828 0 1.5.673 1.5 1.504v7.492c0 .83-.666 1.504-1.5 1.504-.828 0-1.5-.673-1.5-1.504v-7.492zM9 10.5c-.828 0-1.5-.672-1.5-1.5S8.172 7.5 9 7.5s1.5.672 1.5 1.5-.672 1.5-1.5 1.5zm6.75 6.375V21c0 .828-.672 1.5-1.5 1.5s-1.5-.672-1.5-1.5v-4.125c0-2.691 2.185-4.875 4.875-4.875s4.875 2.187 4.875 4.875V21c0 .828-.672 1.5-1.5 1.5s-1.5-.672-1.5-1.5v-4.125c0-1.032-.842-1.875-1.875-1.875s-1.875.841-1.875 1.875z"/>
</svg>
