<svg xmlns="http://www.w3.org/2000/svg" width="31" height="33" viewBox="0 0 31 33">
    <path d="M6.2 0c1.284 0 2.325 1.054 2.325 2.36V5.58c0 1.303-1.044 2.36-2.325 2.36-1.23 0-2.237-.968-2.32-2.198-.466.274-.78.788-.78 1.378v6.238h13.95V7.12c0-.59-.314-1.105-.78-1.378-.083 1.228-1.092 2.198-2.32 2.198-1.284 0-2.325-1.054-2.325-2.36V2.36C11.625 1.057 12.669 0 13.95 0c1.284 0 2.325 1.054 2.325 2.36 2.2.44 3.875 2.398 3.875 4.759v7.141c0 4.827-3.787 8.539-8.504 8.539l-.021 4.869c0 1.548 1.644 2.666 3.115 1.9.684-.357 3.667-3.011 3.907-3.211 1.154-.964 2.174-1.535 3.295-1.677.62-1.886 2.359-3.244 4.408-3.244 2.568 0 4.65 2.133 4.65 4.764 0 2.63-2.082 4.763-4.65 4.763-1.978 0-3.667-1.265-4.34-3.048-.38.136-.833.426-1.405.904-.2.167-3.464 3.06-4.46 3.579-3.588 1.87-7.62-.872-7.62-4.73v-4.87C3.829 22.782 0 19.082 0 14.26V7.12c0-2.36 1.677-4.32 3.875-4.696C3.875 1.057 4.919 0 6.2 0zM3.59 16.533c.861 1.876 2.768 3.12 4.968 3.12h3.088c2.2 0 4.078-1.245 4.924-3.12H3.59zm22.76 11.255c.856 0 1.55-.711 1.55-1.588 0-.877-.694-1.588-1.55-1.588-.856 0-1.55.71-1.55 1.588 0 .877.694 1.588 1.55 1.588z"/>
</svg>