<svg xmlns="http://www.w3.org/2000/svg" width="175" height="43" viewBox="0 0 175 43">
    <g fill="#272727">
        <path d="M35.3 5.182v18.225c0 6.26-4.095 10.643-9.962 10.643-5.866 0-9.96-4.382-9.96-10.643v-4.965c-.04-.643.282-1.255.833-1.588.552-.334 1.243-.334 1.794 0 .552.333.873.945.834 1.588v4.965c0 4.345 2.555 7.156 6.5 7.156 3.944 0 6.498-2.811 6.498-7.156V2.747C22.329-2.604 10.319.07 3.979 8.948c-6.34 8.877-4.973 21.106 3.171 28.363V19.156c0-6.261 4.095-10.612 9.961-10.612 5.867 0 9.961 4.382 9.961 10.643v4.971c-.055.916-.813 1.63-1.73 1.63-.918 0-1.677-.714-1.732-1.63v-5.015c0-4.345-2.554-7.15-6.499-7.15-3.944 0-6.498 2.805-6.498 7.15v20.661c9.53 5.484 21.665 2.839 28.048-6.113 6.383-8.952 4.928-21.287-3.362-28.51zM55.34 14.535h4.903v2.805c.882-1.76 2.804-3.212 5.747-3.212 3.481 0 5.954 2.098 5.954 6.831v11.27h-4.908V21.666c0-2.397-.946-3.55-3.13-3.55-2.186 0-3.689 1.29-3.689 3.889v10.211H55.34v-17.68zM75.037 23.563v-.269c0-5.547 4.026-9.166 9.335-9.166 5.31 0 9.297 3.55 9.297 9.06v.275c0 5.579-4.025 9.129-9.335 9.129-5.309 0-9.297-3.519-9.297-9.029zm13.661-.068v-.238c0-3.381-1.59-5.41-4.326-5.41-2.736 0-4.326 1.96-4.326 5.34v.276c0 3.381 1.559 5.41 4.332 5.41 2.774 0 4.333-2.029 4.333-5.378h-.013zM96.725 9.464c-.049-1.141.602-2.197 1.644-2.666 1.042-.468 2.264-.255 3.086.539.821.794 1.076 2.008.644 3.065-.432 1.057-1.465 1.745-2.607 1.735-.725.024-1.428-.247-1.95-.75-.521-.504-.816-1.198-.817-1.923zm.369 5.071h4.865v17.681h-4.871l.006-17.68zM105.177 26.675h4.564c.2 1.584.977 2.504 3.13 2.504 1.879 0 2.774-.707 2.774-1.928 0-1.22-1.046-1.722-3.581-2.091-4.702-.714-6.524-2.066-6.524-5.516 0-3.681 3.38-5.51 6.993-5.51 3.926 0 6.887 1.422 7.307 5.479h-4.496c-.275-1.453-1.083-2.129-2.773-2.129-1.59 0-2.504.745-2.504 1.822s.845 1.56 3.418 1.928c4.426.627 6.887 1.76 6.887 5.548 0 3.787-2.774 5.816-7.438 5.816-4.82-.006-7.588-2.104-7.757-5.923zM122.35 23.595v-.27c0-5.578 3.957-9.197 9.091-9.197 4.564 0 8.621 2.674 8.621 8.997v1.353h-12.74c.131 2.936 1.721 4.626 4.382 4.626 2.26 0 3.381-.976 3.681-2.466h4.634c-.576 3.819-3.62 5.954-8.453 5.954-5.328 0-9.216-3.35-9.216-8.997zm12.948-2.129c-.17-2.673-1.522-3.957-3.857-3.957-2.197 0-3.681 1.453-4.057 3.957h7.914zM144.088 18.016h-2.335v-3.48h2.335v-2.03c0-4.125 2.367-6.185 6.261-6.185.812-.024 1.623.078 2.404.3v3.688c-.531-.193-1.094-.285-1.659-.269-1.521 0-2.16.977-2.16 2.33v2.165h3.82v3.481h-3.82v14.2h-4.871l.025-14.2zM155.207 9.464c-.048-1.14.602-2.196 1.643-2.665 1.041-.469 2.263-.257 3.085.536.822.792 1.079 2.005.649 3.062-.43 1.058-1.461 1.747-2.603 1.74-.725.024-1.43-.247-1.952-.75-.522-.504-.819-1.197-.822-1.923zm.376 5.071h4.865v17.681h-4.865v-17.68zM165.688 26.976v-8.96h-2.26v-3.48h2.26v-3.82h4.871v3.82h3.719v3.48h-3.719v8.521c0 1.422.708 2.098 1.96 2.098.643.021 1.283-.094 1.878-.338v3.756c-.958.322-1.963.48-2.974.47-3.725.031-5.735-1.86-5.735-5.547z"/>
    </g>
</svg>
