<svg xmlns="http://www.w3.org/2000/svg" width="34" height="32" viewBox="0 0 34 32">
    <path fill-rule="evenodd" d="M7.724 21.078C3.46 21.078 0 17.574 0 13.263 0 8.95 3.462 5.448 7.724 5.448h13.445L27.193.606c1.684-1.339 3.716-.34 3.716 1.825v7.706c1.707 0 3.091 1.4 3.091 3.126 0 1.727-1.384 3.126-3.09 3.126v7.738c0 2.166-2.032 3.167-3.712 1.824l-6.112-4.873h-2.112l1.824 7.465c.445 1.825-.812 3.457-2.675 3.457h-4.637c-1.563 0-3.042-1.173-3.416-2.707l-2.007-8.215h-.34zm5.346 7.465c.034.14.275.331.416.35H17.7l-1.91-7.815h-4.542l1.823 7.465zm-3.022-13.717c-.855 0-1.548-.693-1.548-1.563 0-.863.69-1.563 1.548-1.563h5.407V8.574H7.724c-2.555 0-4.633 2.102-4.633 4.69 0 2.585 2.077 4.688 4.633 4.688h7.73v-3.126h-5.406zm17.77-10.709L22.591 8.24c-.272.217-.608.334-.955.334h-3.09v9.378h3.09c.348 0 .686.119.958.337l5.227 4.176-.001-9.1-.002-.102c0-.033 0-.067.002-.1l-.002-9.046z"/>
</svg>