<svg xmlns="http://www.w3.org/2000/svg" width="35" height="35" viewBox="0 0 35 35">
    <path fill-rule="evenodd" d="M8.75 1.757C8.75.787 9.536 0 10.492 0h14.016c.962 0 1.742.79 1.742 1.757V7h7.002C34.218 7 35 7.786 35 8.742v14.016c0 .96-.782 1.74-1.75 1.742v8.755c0 .964-.779 1.745-1.75 1.745h-28c-.967 0-1.75-.783-1.75-1.745V24.5C.783 24.5 0 23.714 0 22.758V8.742C0 7.78.78 7 1.748 7H8.75V1.757zM12.25 7h10.5V3.5h-10.5V7zm-7 24.5h24.5v-7h-7v1.743c0 .97-.79 1.757-1.757 1.757h-6.986c-.97 0-1.757-.79-1.757-1.757V24.5h-7v7zM22.75 21h8.75V10.5h-28V21h8.75v-1.743c0-.97.79-1.757 1.757-1.757h6.986c.97 0 1.757.79 1.757 1.757V21zm-7 0v3.5h3.5V21h-3.5z"/>
</svg>