<svg xmlns="http://www.w3.org/2000/svg" width="37" height="28" viewBox="0 0 37 28">
    <path fill-rule="evenodd" d="M10.757 22.026c.305.335.823.82 1.349 1.172 1.561 1.047 3.648 1.686 6.366 1.686 2.718 0 4.802-.639 6.36-1.685.523-.352 1.147-.858 1.343-1.171v-6.532l-5.656 2.72c-1.187.57-2.92.57-4.102-.001l-5.66-2.732v6.543zm-3.084-8.032l-6.796-3.28c-1.17-.565-1.17-2.25.002-2.813L16.411.43c1.187-.57 2.921-.572 4.106-.004L36.12 7.9c1.174.563 1.175 2.25.002 2.815l-.694.333v7.423c.473.428.77 1.05.77 1.742 0 1.29-1.035 2.337-2.312 2.337-1.278 0-2.313-1.046-2.313-2.337 0-.692.298-1.314.77-1.742v-5.94l-3.083 1.483v8.51c.005.285-.067.573-.224.834-.122.204-.334.496-.648.846-.492.549-1.105 1.09-1.848 1.59C24.477 27.178 21.799 28 18.472 28c-3.326 0-6.006-.82-8.072-2.206-.743-.499-1.358-1.04-1.85-1.588-.315-.35-.529-.642-.651-.845-.158-.261-.23-.551-.226-.836v-8.53zM17.737 3.242L5.116 9.307l12.63 6.096c.343.166 1.1.166 1.448 0l12.663-6.089-12.66-6.074c-.348-.166-1.11-.166-1.46.002z"/>
</svg>