<svg xmlns="http://www.w3.org/2000/svg" width="34" height="34" viewBox="0 0 34 34">
    <path fill-rule="evenodd" d="M18.352 20.722l-4.774 4.767-1.31 5.582c-.39 1.658-1.475 1.858-2.445.448 0 0-1.89-2.925-3.357-4.39-1.265-1.265-3.965-2.952-3.965-2.952-1.419-.94-1.237-2.1.394-2.589l5.213-1.563 4.733-4.727-2.926-1.449-1.261 1.26c-.604.603-1.58.607-2.188-.001-.604-.604-.602-1.584 0-2.185l.523-.522-2.195-1.087-1.064 1.063c-.604.603-1.579.607-2.187-.001-.605-.604-.603-1.584-.002-2.185l.327-.326L.7 9.287C-.064 8.91-.23 8.084.336 7.448l2.37-2.663c.569-.639 1.699-.988 2.53-.786l15.217 3.697 5.161-5.155c.605-.604 1.761-1.267 2.588-1.482l3.665-.956c1.65-.43 2.527.526 1.96 2.133L32.696 5.45c-.285.808-1.004 1.95-1.61 2.556l-5.09 5.083 4.061 15.064c.221.821-.074 1.983-.666 2.602l-2.728 2.852c-.59.615-1.388.494-1.774-.252l-.944-1.825-.52.518c-.603.603-1.578.606-2.186-.001-.605-.604-.603-1.584-.002-2.185l1.216-1.214-1.118-2.162-.645.644c-.603.603-1.578.607-2.187 0-.604-.604-.603-1.584-.001-2.185l1.342-1.34-1.491-2.882zm-3.205-7.728L4.301 7.645l.498-.571 13.092 3.18-2.744 2.74zm5.502 5.434l5.712 11.04.66-.683-3.55-13.175-2.822 2.818zm-13.586 5.15s1.157.93 1.592 1.365c.484.484 1.471 1.71 1.471 1.71l.64-2.727L28.897 5.82c.279-.277.748-1.023.88-1.397l.228-.639-1.02.266c-.294.077-.965.461-1.181.677L9.744 22.762l-2.68.816z"/>
</svg>